{"title":"Young Money Ft. Tyga, Nicki Minaj &amp; Lil Wayne - Senile [Expl","uid":10072514,"size":110099435,"categoryP":"video","categoryS":"music_videos","magnet":"?xt=urn:btih:428941360ce96f246bc881380b2bad3f113cadb6&amp;dn=Young+Money+Ft.+Tyga%2C+Nicki+Minaj+%26amp%3B+Lil+Wayne+-+Senile+%5BExpl&amp;tr=udp%3A%2F%2Ftracker.openbittorrent.com%3A80&amp;tr=udp%3A%2F%2Fopen.demonii.com%3A1337&amp;tr=udp%3A%2F%2Ftracker.coppersurfer.tk%3A6969&amp;tr=udp%3A%2F%2Fexodus.desync.com%3A6969","seeders":2,"leechers":1,"uploader":"Sbyky","files":1,"time":1398873491,"description":"\n\nGeneral\nComplete name                            : Young Money Ft. Tyga, Nicki Minaj &amp; Lil Wayne - Senile [Explicit] 1080p [Sbyky].MP4\nFormat                                   : MPEG-4\nFormat profile                           : Base Media\nCodec ID                                 : isom\nFile size                                : 105 MiB\nDuration                                 : 3mn 53s\nOverall bit rate mode                    : Variable\nOverall bit rate                         : 3 775 Kbps\nEncoded date                             : UTC 2014-04-17 19:43:12\nTagged date                              : UTC 2014-04-17 19:43:12\n\nVideo\nID                                       : 1\nFormat                                   : AVC\nFormat/Info                              : Advanced Video Codec\nFormat profile                           : &lt;a class=&quot;__cf_email__&quot; href=&quot;/cdn-cgi/l/email-protection&quot; data-cfemail=&quot;3078595758707c041e00&quot;&gt;[email&amp;#160;protected]&lt;/a&gt;&lt;script cf-hash='f9e31' type=&quot;text/javascript&quot;&gt;\n/* &lt;![CDATA[ */!function(){try{var t=&quot;currentScript&quot;in document?document.currentScript:function(){for(var t=document.getElementsByTagName(&quot;script&quot;),e=t.length;e--;)if(t[e].getAttribute(&quot;cf-hash&quot;))return t[e]}();if(t&amp;&amp;t.previousSibling){var e,r,n,i,c=t.previousSibling,a=c.getAttribute(&quot;data-cfemail&quot;);if(a){for(e=&quot;&quot;,r=parseInt(a.substr(0,2),16),n=2;a.length-n;n+=2)i=parseInt(a.substr(n,2),16)^r,e+=String.fromCharCode(i);e=document.createTextNode(e),c.parentNode.replaceChild(e,c)}}}catch(u){}}();/* ]]&gt; */&lt;/script&gt;\nFormat settings, CABAC                   : Yes\nFormat settings, ReFrames                : 2 frames\nCodec ID                                 : avc1\nCodec ID/Info                            : Advanced Video Coding\nDuration                                 : 3mn 53s\nBit rate                                 : 3 646 Kbps\nWidth                                    : 1 920 pixels\nHeight                                   : 1 080 pixels\nDisplay aspect ratio                     : 16:9\nFrame rate mode                          : Variable\nFrame rate                               : 23.976 fps\nMinimum frame rate                       : 23.974 fps\nMaximum frame rate                       : 24.390 fps\nColor space                              : YUV\nChroma subsampling                       : 4:2:0\nBit depth                                : 8 bits\nScan type                                : Progressive\nBits/(Pixel*Frame)                       : 0.073\nStream size                              : 101 MiB (97%)\nEncoded date                             : UTC 2014-04-17 19:43:12\nTagged date                              : UTC 2014-04-17 19:43:12\n\nAudio\nID                                       : 2\nFormat                                   : AAC\nFormat/Info                              : Advanced Audio Codec\nFormat profile                           : LC\nCodec ID                                 : 40\nDuration                                 : 3mn 53s\nBit rate mode                            : Variable\nBit rate                                 : 126 Kbps\nChannel(s)                               : 2 channels\nChannel positions                        : Front: L R\nSampling rate                            : 44.1 KHz\nCompression mode                         : Lossy\nStream size                              : 3.49 MiB (3%)\nEncoded date                             : UTC 2014-04-17 19:42:54\nTagged date                              : UTC 2014-04-17 19:42:54\n\nShared By Sbyky\n","torrent":{"xt":"urn:btih:428941360ce96f246bc881380b2bad3f113cadb6","amp;dn":"Young+Money+Ft.+Tyga%2C+Nicki+Minaj+%26amp%3B+Lil+Wayne+-+Senile+%5BExpl","amp;tr":["udp%3A%2F%2Ftracker.openbittorrent.com%3A80","udp%3A%2F%2Fopen.demonii.com%3A1337","udp%3A%2F%2Ftracker.coppersurfer.tk%3A6969","udp%3A%2F%2Fexodus.desync.com%3A6969"],"infoHash":"428941360ce96f246bc881380b2bad3f113cadb6","infoHashBuffer":{"type":"Buffer","data":[66,137,65,54,12,233,111,36,107,200,129,56,11,43,173,63,17,60,173,182]},"announce":[],"urlList":[]}}